<svg id="Capa_1" data-name="Capa 1" xmlns="http://www.w3.org/2000/svg" viewBox="0 0 371.88 250.08"><defs><style>.cls-1{fill:#7b1333;}</style></defs><path class="cls-1" d="M111.88,363.33c2.1-5.52,6.22-9.18,10.87-12.59,22.25-16.34,44.39-32.83,66.58-49.25,9.41-7,18.46-5.69,25.51,3.68,5.68,7.55,11.23,15.19,16.86,22.78,7.57,10.2,7.76,15.18.85,25.65,7.51,8.61,17.37,13.2,28.09,16.32,16.34,4.75,33,3.93,49.74,3.25,15.36-.63,30.72-1.5,46,1.66a86.26,86.26,0,0,1,45,25c7.7,7.94,14.14,17.14,20.9,25.95a6.21,6.21,0,0,0,5,2.8c10.09.93,20.33,1.31,30.21,3.34,15.1,3.09,25.4,16,25.92,31.43.38,11.23.74,22.53-.1,33.71-.9,11.91-5.15,22.75-16,29.42-8.43,5.16-17.89,5.06-27.16,3.58-11.44-1.81-22.75-4.4-34.1-6.75-19.35-4-37.94-1.55-56,6.13-15.23,6.46-30.5,12.92-46.91,15.91-16.22,3-32.31,2.63-47.79-3.62-14.67-5.92-28.93-12.94-43.8-18.25-17.72-6.32-35.93-11.24-53.86-17a44.08,44.08,0,0,1-11.45-5.25c-8.71-5.94-10-16.14-3.36-24.33,6.53-8,15.14-13,24.92-16.14,10.66-3.43,21.3-6.93,32.31-10.52-10.3-17.21-24.36-30.5-37.91-44-3.55,1.56-6.81,3.37-10.3,4.43A13.23,13.23,0,0,1,137.06,406c-8-10-15.42-20.5-23-30.85a26.9,26.9,0,0,1-2.19-4.55Zm64.8,112.78c20.14,8,40.4,11.48,61.08,13,9.25.69,18.66.38,27.48,4.11,10.95,4.64,16.46,14.21,14.53,25.87-.59,3.53-1.72,7-2.63,10.57,8.89.72,17.8.78,26.26-1.9,13.1-4.14,26.21-8.44,38.88-13.71,24.43-10.17,49.11-12.39,74.83-5.69a181.13,181.13,0,0,0,31.38,5.22c10.43.82,14.41-2.79,16.86-13,3-12.41,2.49-25,1-37.56-1-8.36-6.26-13.55-14.52-15-6.72-1.21-13.57-1.75-20.85-2.64.15,2.36.22,4,.38,5.67.63,6.73-3.17,12.76-9.69,14.28-6.83,1.59-13.68,1.13-19.14-3.83C396.5,455.93,391,449.73,385,444.18c-5.68-5.21-11.38-10.59-17.78-14.81-16-10.5-34.68-9.33-49.73,2.37-1.07.83-2,1.87-3.46,3.27,12.87,1.38,24.86,2.7,36.86,3.95a20.76,20.76,0,0,1,18.48,16.44,18.84,18.84,0,0,1-8.68,20.93,23.63,23.63,0,0,1-14.23,3.39c-10.62-.63-21.24-1.83-31.85-1.75-18.16.13-36.31,1.32-54.47,1.6-17.28.26-33.76-2.71-47.5-14.43a2.8,2.8,0,0,0-2.26-.51C199.38,468.31,188.46,472.07,176.68,476.11ZM413,448.27l.67-.58a8.84,8.84,0,0,0-.32-1.35c-7.71-19.29-20.77-34.18-37.88-45.62-13.06-8.73-27.87-11.24-43.23-11.16-18.38.09-36.79,1.09-55.15.44a84.91,84.91,0,0,1-45.86-15.18c-4.61-3.19-8.72-7.12-13.19-10.82L175.4,395.58c15.85,15,30.09,30.63,41.66,48.54,8.27,12.79,20.91,17.76,35.34,18,16.09.23,32.19-.82,48.29-1,12-.13,23.94.16,35.9.46,3.85.1,7.68,1,11.53,1.13,1.86,0,4.43-.19,4.46-3.13,0-2.68-2-3.39-4.15-3.65-5.16-.61-10.34-1-15.5-1.7-8.86-1.15-17.79-2-26.52-3.79A13.31,13.31,0,0,1,296,433a27.34,27.34,0,0,1,6.64-11A58.62,58.62,0,0,1,367.09,410c11.17,4.82,20.54,12.19,28.92,20.92C401.6,436.76,407.31,442.49,413,448.27ZM200.39,314.43l-71.3,52.88L148.93,394l71.35-52.79Zm59.23,211c6.81-11.38,4-17.05-8.92-18.17-8.07-.7-16.16-1.23-24.22-2.11-7.91-.86-15.78-2.05-21.78-2.85Z" transform="translate(-111.88 -297.06)"/><path class="cls-1" d="M454,357.47c1.09,1.53,2.39,2.5,2.42,3.51.25,8.39,5.29,11.61,12.79,12.7,1.18.17,2.13,1.87,3.18,2.86-1.1.94-2.12,2.56-3.33,2.71-7.33.93-11.57,4.7-12.18,12.22a3.18,3.18,0,0,1-.47,1.72c-.82.92-1.84,2.32-2.75,2.31s-2.24-1.35-2.65-2.39a34,34,0,0,1-1.47-6.3c-.63-3.55-2.87-5-6.27-5.34a19.92,19.92,0,0,1-5.28-1.09c-1-.38-2.32-1.61-2.27-2.38a4.64,4.64,0,0,1,2.08-3,9.59,9.59,0,0,1,4.08-1.33c4.48-.51,6.87-3,7.67-7.34a25.81,25.81,0,0,1,1.65-5.52C451.7,359.75,452.77,358.93,454,357.47Zm-4.7,19.67,4.63,4.94-.9-.79,5.57-4.87-5-4.55Z" transform="translate(-111.88 -297.06)"/><path class="cls-1" d="M152.9,447.22c-1.11.71-2.16,1.92-3.33,2.06-5.71.68-8.29,4-9.14,9.42-.19,1.2-1.84,2.17-2.82,3.25-1-1.17-2.85-2.26-3-3.52-.48-5-2.58-7.67-7.82-7.93-1.32-.07-2.55-1.76-3.81-2.7,1.19-1.18,2.28-3.24,3.59-3.39,5.14-.6,7-3.65,8-8.24.32-1.46,2.22-2.59,3.39-3.87.94,1.37,2.61,2.7,2.69,4.11.26,4.86,3.39,6.06,7.3,6.95,1.75.4,3.33,1.58,5,2.4Zm-15.28-3c-.77.91-1.6,1.88-2.46,2.91l2.66,2.51,2.61-2.9Z" transform="translate(-111.88 -297.06)"/></svg>