<svg width="107" height="112" viewBox="0 0 107 112" fill="none" xmlns="http://www.w3.org/2000/svg">
<path d="M24.1085 45.7597H32.6142C34.9369 45.7597 36.8267 43.875 36.8267 41.5586V33.0732C36.8267 30.7568 34.9369 28.8721 32.6142 28.8721H24.1085C21.7893 28.8721 19.9023 30.7568 19.9023 33.0732V41.5586C19.9023 43.875 21.7893 45.7597 24.1085 45.7597ZM24.2697 33.239H32.4591V41.3928H24.2697V33.239Z" fill="#AA0956"/>
<path d="M99.9487 61.0282C98.9029 61.0282 97.8532 61.252 96.8955 61.6938C96.1591 59.3597 94.4067 57.8588 92.4015 57.233V10.3037C92.4012 4.62218 87.7703 0 82.0781 0H10.3233C4.63113 0 0 4.62218 0 10.3037V16.1153C0 18.8447 2.22363 21.0652 4.95694 21.0652H7.08493V103.079C7.08493 105.808 9.30856 108.029 12.0419 108.029H69.8332C73.6642 110.511 77.8427 111.804 82.0875 111.804C84.4476 111.804 86.8289 111.405 89.181 110.589C94.2543 108.829 98.7869 105.149 101.944 100.228C105.292 95.0092 107.04 88.5879 106.999 81.6707V68.3455C106.999 63.5416 103.452 61.0282 99.9487 61.0282ZM11.4523 103.079V21.0652H31.4602C32.6662 21.0652 33.6438 20.0876 33.6438 18.8818C33.6438 17.676 32.6662 16.6983 31.4602 16.6983H4.95694C4.63747 16.6983 4.36735 16.4313 4.36735 16.1151V10.3037C4.36735 7.03012 7.03907 4.36691 10.3233 4.36691H73.6452C72.4549 6.04615 71.7551 8.09466 71.7551 10.3037V16.1153C71.7551 16.4315 71.4852 16.6985 71.1655 16.6985H51.1143C49.9083 16.6985 48.9306 17.6762 48.9306 18.882C48.9306 20.0878 49.9083 21.0655 51.1143 21.0655H71.1655C73.8988 21.0655 76.1224 18.8449 76.1224 16.1155V10.3037C76.1224 7.03012 78.7941 4.36691 82.0781 4.36691C85.3622 4.36691 88.0339 7.03012 88.0339 10.3037V57.2319C87.7393 57.3238 87.4493 57.4323 87.1681 57.562C86.1723 54.4036 83.3169 52.7656 80.49 52.7656C79.5781 52.7656 78.664 52.9357 77.8097 53.2724V40.9771C77.8097 36.1732 74.2645 33.6596 70.7624 33.6596C67.26 33.6596 63.7148 36.173 63.7148 40.9771V72.5292C63.7148 73.523 63.7329 74.4292 63.7486 75.2288C63.7506 75.3151 63.7523 75.4024 63.7539 75.49L58.6781 70.0485C55.7212 66.8833 51.4458 66.5586 48.2814 69.2593C45.1675 71.9171 43.7331 77.1481 47.2077 81.6073L62.3642 101.06C63.085 101.985 63.8344 102.852 64.6075 103.662H12.0419C11.7222 103.662 11.4523 103.395 11.4523 103.079ZM102.632 81.6833C102.701 93.5765 96.8596 103.303 87.7496 106.463C80.0425 109.136 71.84 106.114 65.8093 98.3764L50.6531 78.9238C48.8455 76.6039 49.5429 73.9241 51.1169 72.5809C51.4842 72.2676 52.1872 71.793 53.0755 71.793C53.7858 71.793 54.615 72.0964 55.4856 73.0284L60.8031 78.729C62.3039 80.3367 64.1703 82.3376 66.2402 81.4986C67.8891 80.8297 68.0426 78.9662 68.093 78.3539C68.1623 77.5116 68.1415 76.4659 68.1151 75.1419C68.0998 74.3628 68.0821 73.4797 68.0821 72.5294V40.9771C68.0821 38.1686 70.3149 38.0265 70.7624 38.0265C71.2098 38.0265 73.4424 38.1686 73.4424 40.9771V72.2385C73.4424 73.4443 74.4202 74.422 75.6261 74.422C76.8319 74.422 77.8097 73.4443 77.8097 72.2385V60.0831C77.8097 57.2747 80.0425 57.1325 80.49 57.1325C81.1964 57.1325 81.8707 57.3847 82.3395 57.825C82.8907 58.3421 83.1702 59.1018 83.1702 60.0833V72.2387C83.1702 73.4446 84.148 74.4222 85.3539 74.4222C86.5597 74.4222 87.5375 73.4446 87.5375 72.2387V64.2174C87.5375 61.4071 89.7688 61.2647 90.2163 61.2647C90.9229 61.2647 91.5974 61.5173 92.0669 61.9576C92.6185 62.4753 92.8982 63.2355 92.8982 64.2172V72.2385C92.8982 73.4443 93.8761 74.422 95.0819 74.422C96.2877 74.422 97.2656 73.4443 97.2656 72.2385V68.3455C97.2656 65.5373 99.5008 65.3951 99.9489 65.3951C100.656 65.3951 101.332 65.6475 101.801 66.0878C102.352 66.6046 102.632 67.3643 102.632 68.3455V81.6833H102.632Z" fill="#AA0956"/>
<path d="M41.6475 31.0555C41.6475 32.2614 42.6251 33.239 43.8311 33.239H61.3075C62.5133 33.239 63.4912 32.2614 63.4912 31.0555C63.4912 29.8497 62.5133 28.8721 61.3075 28.8721H43.8311C42.6251 28.8721 41.6475 29.8497 41.6475 31.0555Z" fill="#AA0956"/>
<path d="M57.5977 41.3936H43.8311C42.6251 41.3936 41.6475 42.3712 41.6475 43.577C41.6475 44.7828 42.6251 45.7605 43.8311 45.7605H57.5977C58.8035 45.7605 59.7813 44.7828 59.7813 43.577C59.7813 42.3712 58.8035 41.3936 57.5977 41.3936Z" fill="#AA0956"/>
<path d="M22.086 58.2868H55.4386C56.6444 58.2868 57.6222 57.3092 57.6222 56.1034C57.6222 54.8976 56.6444 53.9199 55.4386 53.9199H22.086C20.88 53.9199 19.9023 54.8976 19.9023 56.1034C19.9023 57.3092 20.88 58.2868 22.086 58.2868Z" fill="#AA0956"/>
<path d="M22.086 70.8073H40.0775C41.2836 70.8073 42.2612 69.8297 42.2612 68.6239C42.2612 67.4181 41.2836 66.4404 40.0775 66.4404H22.086C20.88 66.4404 19.9023 67.4181 19.9023 68.6239C19.9023 69.8297 20.88 70.8073 22.086 70.8073Z" fill="#AA0956"/>
<path d="M22.086 83.3337H37.931C39.137 83.3337 40.1146 82.3561 40.1146 81.1502C40.1146 79.9444 39.137 78.9668 37.931 78.9668H22.086C20.88 78.9668 19.9023 79.9444 19.9023 81.1502C19.9023 82.3561 20.88 83.3337 22.086 83.3337Z" fill="#AA0956"/>
<path d="M45.3323 91.4883H22.086C20.88 91.4883 19.9023 92.4659 19.9023 93.6717C19.9023 94.8776 20.88 95.8552 22.086 95.8552H45.3323C46.5383 95.8552 47.516 94.8776 47.516 93.6717C47.516 92.4659 46.5383 91.4883 45.3323 91.4883Z" fill="#AA0956"/>
<path d="M41.287 21.0661H41.2994C42.5055 21.0661 43.477 20.0885 43.477 18.8827C43.477 17.6768 42.4932 16.6992 41.2872 16.6992C40.0811 16.6992 39.1035 17.6768 39.1035 18.8827C39.1035 20.0885 40.0809 21.0661 41.287 21.0661Z" fill="#AA0956"/>
</svg>
