<svg id="Capa_1" data-name="Capa 1" xmlns="http://www.w3.org/2000/svg" viewBox="0 0 380.8 300.67"><defs><style>.cls-1{fill:#aa1257;}.cls-2{fill:#7b1333;}</style></defs><path class="cls-1" d="M397.83,507.09l-1.49-.08c10.36,23.65-13.09,42.61-55.08,43.2-44.46.63-89-19.11-99.5-44.06s13.26-46.21,53-47.43c16.9-.52,34.68,2.77,50.7,8.68.25-1.62.54-3.25.79-4.88a150,150,0,0,0-48.59-9.09,107,107,0,0,0-22.26,1.75q-31.53,6-41.8,25.31c-3.9,7-4.55,14.5-2.2,22.45l.69,2.37,1,2.41,1.21,2.26A53.55,53.55,0,0,0,246,524.61c16.92,15.18,45,26.29,75.51,29.88a162.75,162.75,0,0,0,17.91,1.16c.37,0,.75.05,1.13.07l6.42-.09c.38,0,.74-.08,1.13-.09a129.17,129.17,0,0,0,16.48-1.64c17-2.88,29.41-8.47,37-16.83,7.56-8.62,8.69-18.54,3.73-29.66Q401.56,507.3,397.83,507.09Z" transform="translate(-105.53 -274.17)"/><path class="cls-1" d="M345.38,478a101.49,101.49,0,0,0-25.85-6.56,4.51,4.51,0,0,1-2.16-.72,8.94,8.94,0,0,0-3.83-1.54c-2.18-.3-5,1.12-4.81,2.53a7.4,7.4,0,0,0,.91,2.55,5,5,0,0,0,3.91,2,30.14,30.14,0,0,0,3.68,0,13.53,13.53,0,0,1,2.19-.16,97.2,97.2,0,0,1,29.07,8.73A19.1,19.1,0,0,1,345.38,478Z" transform="translate(-105.53 -274.17)"/><path class="cls-1" d="M368.23,498.35c-1.29-.77-2.61-1.47-3.93-2.16a43.17,43.17,0,0,1,5,6.91A26.33,26.33,0,0,1,372,510a14.72,14.72,0,0,1,.6,4.38,13.65,13.65,0,0,1-4,8.12c-3.71,3.86-9.37,6.63-16.32,8.67a6.55,6.55,0,0,1-1.6.17c-1.27,0-2.61,0-3.85,0-2.55.15-3.69,1-3.2,2.39.61,1.69,2.35,3.15,4.93,4.37a6.07,6.07,0,0,0,5.16.37A17.52,17.52,0,0,0,356,537a1.85,1.85,0,0,1,.64-.34q16.33-4.37,22.14-14.05a15.45,15.45,0,0,0,2.55-6.72,22.79,22.79,0,0,0-2.78-12A94.8,94.8,0,0,1,368.23,498.35Z" transform="translate(-105.53 -274.17)"/><path class="cls-1" d="M288.54,497.08a47.18,47.18,0,0,1-10.91-1,24.51,24.51,0,0,1-3.5-1.06c-3-1.15-3.7-2.78-1.92-4.08a12.53,12.53,0,0,1,5-1.89,49.81,49.81,0,0,1,19,.06,18.88,18.88,0,0,1,4.47,1.37c2.37,1.09,3.06,2.44,1.8,3.61s-3.33,1.75-5.56,2.21A46.73,46.73,0,0,1,288.54,497.08Z" transform="translate(-105.53 -274.17)"/><path class="cls-1" d="M303.17,523.08A54.53,54.53,0,0,1,290.52,522a25.53,25.53,0,0,1-3.67-1.08c-3-1.17-3.72-2.77-1.9-4.06a12.73,12.73,0,0,1,4.75-1.78,52.71,52.71,0,0,1,19.7,0,20.83,20.83,0,0,1,5,1.46c2.48,1.11,3.16,2.46,1.81,3.64s-3.43,1.72-5.72,2.16c-1,.19-2.13.36-3.24.47C305.65,523,304,523,303.17,523.08Z" transform="translate(-105.53 -274.17)"/><path class="cls-2" d="M281.59,439.58c-23.75,2.47-47.52.36-71.29.42-17.44,0-34.89-.46-52.33-.69s-34.88-.44-52.25-.66c-.7,1.72.67,2.3,1.34,3.1q53.13,64,106.26,127.92c2.08,2.51,4.3,3.06,7.29,3.1q83.91.94,167.83,2.06c40.34.5,77-24,91-61.86,11.53-31.27,9.42-61.15-12.49-87.88-5.81-7.09-13.33-12.48-19.92-18.8-.4,4.66.38,9.39-.68,14,5.56,6.4,12.78,11.3,17.44,18.47,14.08,21.65,14.66,44.87,6.33,68.44-13.81,39.07-51.47,57.84-82.11,57-54.1-1.44-108.22-1.6-162.34-2.18a8.92,8.92,0,0,1-7.57-3.55Q174.6,506,130.94,453.66c-.86-1-2.42-1.83-2-3.87l5.45.07c43.12.54,86.25,1,129.37,1.68a88.14,88.14,0,0,0,32.72-5.66c3.07-1.15,4.91-.94,7.33,1.47,17.33,17.28,34.87,34.35,52.3,51.53A58,58,0,0,0,370,509.3c24.23,12.61,52.38,4.54,63.56-18.25,8.78-17.9,4.2-38.15-11-48.53-5.08-.83-9.12.12-10.23,6,6.63,3.9,11.93,8.86,13.92,16.68,4.14,16.27-6.48,33.8-23.16,38.09-24.66,6.35-49.82-13-50.65-39.27-.35-11.11,1.54-21.81,9-30.76-.4-1.81-1.85-1.5-3.12-1.53l-8.81-.2c-6.74,11.6-8.68,24.23-7.47,38.34-5.11-5-9.33-9.42-13.89-13.47-6-5.3-10.38-12.33-17.51-16.41-.51,3.2-2.85,2.14-4.58,1.74-5.57-1.28-7.8-5.71-7.2-13.88l-4.92-5c-2.61,3.91-.07,8.56-1.82,12.6v1c1.5,3.82-.44,5.24-3.9,5.38C285.8,441.92,283.23,442.05,281.59,439.58Z" transform="translate(-105.53 -274.17)"/><path class="cls-2" d="M439.39,398.78q-21.92-21.84-43.82-43.67-29.26-29-58.6-57.94c-23.37-23.15-59.44-29.7-86.51-15.66-30.14,15.63-43.41,53.93-28.51,82.27a48.54,48.54,0,0,0,8.76,12.08q23,22.56,46,45a15.52,15.52,0,0,0,2,1.42c2.11-4.42,7.16-2.16,10.19-4.48q-24.92-24.51-49.84-49a39.77,39.77,0,0,1-11.4-20.62c-4.81-22.62,7.19-46.92,28.36-57.51,22.82-11.43,53.49-5.56,73.15,13.93q28.54,28.28,57.13,56.5c12.47,12.33,25,24.63,38.12,37.61-7.09-.07-13.11-1.78-19.24-1.22,2.32.73,3.13,1.89,1.69,4.27-1.17,1.94-2.41,4-1.91,6.5a76.54,76.54,0,0,1,24,3.45c-.09-3.59-2.08-6.57-3.29-9.8-.93-2.46-.33-3.36,2.26-3.29C431.76,398.78,435.57,398.75,439.39,398.78Z" transform="translate(-105.53 -274.17)"/><path class="cls-2" d="M439.39,398.78c-3.82,0-7.63,0-11.45-.11-2.59-.07-3.19.83-2.26,3.29,1.21,3.23,3.2,6.21,3.29,9.8,6.12,2.18,11.71,5.44,17.36,8.55,1.06-4.63.28-9.36.68-14Z" transform="translate(-105.53 -274.17)"/><path class="cls-2" d="M279.44,422.86a60.78,60.78,0,0,0,11.23,11.26c0-2.47.1-4.94.13-7.41,0-5.52-2.41-7.24-7.75-5.41C281.81,421.72,280.64,422.34,279.44,422.86Z" transform="translate(-105.53 -274.17)"/><path class="cls-2" d="M279.44,422.86c1.2-.52,2.37-1.14,3.61-1.56,5.34-1.83,7.79-.11,7.75,5.41,0,2.47-.09,4.94-.13,7.41l1.49,1.32c1.75-4-.79-8.69,1.82-12.6l-5-5c-3,2.32-8.08.06-10.19,4.48C278.73,422.82,278.94,423,279.44,422.86Z" transform="translate(-105.53 -274.17)"/><path class="cls-2" d="M281.59,439.58c1.64,2.47,4.21,2.34,6.67,2.25,3.46-.14,5.4-1.56,3.9-5.38l-1.51.46c-1,5.23-4.2,2.89-7,2A1.82,1.82,0,0,0,281.59,439.58Z" transform="translate(-105.53 -274.17)"/><path class="cls-2" d="M283.68,438.88c2.77.92,5.93,3.26,7-2A22.06,22.06,0,0,0,283.68,438.88Z" transform="translate(-105.53 -274.17)"/><path class="cls-2" d="M399.42,447c4.37.09,8.77,0,13,1.52,1.11-5.91,5.15-6.86,10.23-6a32,32,0,0,0-15-6.07C406.66,441.36,405.88,446.39,399.42,447Z" transform="translate(-105.53 -274.17)"/><path class="cls-2" d="M361.48,433.29l2,1.71a40.5,40.5,0,0,0-5.29-15.3c-.87-.24-1.3.2-1.49,1,2.06,2.31,3.6,5.53,2.54,8s-4.72.65-7.19,1a7.36,7.36,0,0,1-1.48,0l-1.07,1.9,8.81.2C359.63,431.79,361.08,431.48,361.48,433.29Z" transform="translate(-105.53 -274.17)"/><path class="cls-2" d="M300.78,429.81l-1.88-1.93c-.6,8.17,1.63,12.6,7.2,13.88,1.73.4,4.07,1.46,4.58-1.74l.05.12C303.17,440,300.92,437.69,300.78,429.81Z" transform="translate(-105.53 -274.17)"/><path class="cls-2" d="M405.23,397.54c-7.07-.66-13.6,1.69-20.2,3.65l.81,10.75c6.29-1.75,12.55-3.67,19.17-3.63-.5-2.5.74-4.56,1.91-6.5C408.36,399.43,407.55,398.27,405.23,397.54Z" transform="translate(-105.53 -274.17)"/><path class="cls-2" d="M385.84,411.94,385,401.19a60.68,60.68,0,0,0-23.53,14.23c-1.31,1.24-2.85,2.34-3.26,4.28a40.5,40.5,0,0,1,5.29,15.3c6.48,6.59,13,13.13,19.42,19.81,1.84,1.93,2.76.73,3.88-.55,3.38-3.84,7.37-6.6,12.59-7.23,6.46-.64,7.24-5.67,8.17-10.58-5.94-.57-11.87-1-17.26,2.4-.63,4.59-2.81,8.46-5.89,12.06l.12-9.8c-4.94-4.85-9.82-9.78-14.87-14.52-1.75-1.64-1.74-2.57,0-4.21C374.49,417.94,380.19,415,385.84,411.94Z" transform="translate(-105.53 -274.17)"/><path class="cls-2" d="M384.56,441.11l-.12,9.8c3.08-3.6,5.26-7.47,5.89-12.06Z" transform="translate(-105.53 -274.17)"/><path class="cls-2" d="M350.62,429.66a7.36,7.36,0,0,0,1.48,0c2.47-.4,6.09,1.48,7.19-1s-.48-5.67-2.54-8C354.26,423.37,351.91,426.15,350.62,429.66Z" transform="translate(-105.53 -274.17)"/><path class="cls-2" d="M300.78,429.81c.14,7.88,2.39,10.21,10,10.33C308.35,435.79,304.41,433,300.78,429.81Z" transform="translate(-105.53 -274.17)"/></svg>