<svg id="Capa_1" data-name="Capa 1" xmlns="http://www.w3.org/2000/svg" viewBox="0 0 231.1 353.64"><defs><style>.cls-1{fill:#aa1257;}.cls-2{fill:#7b1333;}</style></defs><path class="cls-1" d="M274.93,307.68l2.36-.69c7.95-2.35,15.47-1.7,22.45,2.2Q319,319.48,325.06,351a107.73,107.73,0,0,1,1.74,22.26,151.93,151.93,0,0,1-14.48,61.69c-7,15.18-15.44,27.28-25.24,36.27a54.23,54.23,0,0,1-13.49,9.37c-11.43,5.36-21.61,4.35-30.42-3.4-8.36-7.61-14-20-16.83-37a129.14,129.14,0,0,1-1.64-16.49c0-.38-.07-.75-.1-1.12l-.08-6.42c0-.38.06-.77.06-1.14a168.15,168.15,0,0,1,1.16-17.91c3.6-30.49,14.71-58.58,29.89-75.5a53.75,53.75,0,0,1,14.62-11.71c.76-.39,1.51-.8,2.27-1.2ZM230,416.89c.63,44.44,21.83,68.12,47.39,52.92s45.32-59.75,44.1-99.47S299,306.91,274.08,317.39,229.4,372.43,230,416.89Z" transform="translate(-201.27 -244.84)"/><path class="cls-1" d="M277.14,444.89a50.4,50.4,0,0,0,13-11.11,4.22,4.22,0,0,0,.34-.46A99.76,99.76,0,0,0,300.93,410a96.86,96.86,0,0,0,3.22-14.9,13.74,13.74,0,0,0-.16-2.2,30.14,30.14,0,0,1,0-3.68,4.94,4.94,0,0,1,2-3.9,7.33,7.33,0,0,1,2.55-.91c1.41-.18,2.82,2.63,2.52,4.81a9,9,0,0,1-1.53,3.82,4.45,4.45,0,0,0-.73,2.16q-2.89,23.73-15,41.91A53.17,53.17,0,0,1,279.94,452c-5.35,3.72-10.56,5.25-15.62,5a15.4,15.4,0,0,1-6.72-2.55q-9.68-5.83-14.05-22.14a2.23,2.23,0,0,0-.35-.65,16.68,16.68,0,0,1-1.5-2.23,6.06,6.06,0,0,1,.36-5.16c1.23-2.58,2.69-4.32,4.38-4.93,1.39-.49,2.23.65,2.38,3.2.08,1.24,0,2.58,0,3.85a6.55,6.55,0,0,0,.17,1.6c2,6.95,4.81,12.61,8.68,16.32a13.66,13.66,0,0,0,8.11,4,14.68,14.68,0,0,0,4.38-.6A26.53,26.53,0,0,0,277.14,444.89Z" transform="translate(-201.27 -244.84)"/><path class="cls-1" d="M283.15,364.17a47.79,47.79,0,0,1,1-10.91,24.62,24.62,0,0,1,1.05-3.51c1.16-3,2.78-3.69,4.09-1.91a12.53,12.53,0,0,1,1.88,5,49.6,49.6,0,0,1-.05,19,19.5,19.5,0,0,1-1.37,4.47c-1.1,2.37-2.44,3.06-3.62,1.8s-1.75-3.33-2.21-5.56A46.73,46.73,0,0,1,283.15,364.17Z" transform="translate(-201.27 -244.84)"/><path class="cls-1" d="M257.15,378.8a55,55,0,0,1,1.05-12.65,25.55,25.55,0,0,1,1.09-3.67c1.16-3,2.77-3.72,4.06-1.9a12.51,12.51,0,0,1,1.77,4.74,52.71,52.71,0,0,1,0,19.7,20.76,20.76,0,0,1-1.45,5c-1.12,2.47-2.47,3.16-3.65,1.81s-1.71-3.43-2.15-5.73a32.58,32.58,0,0,1-.47-3.23C257.29,381.27,257.21,379.67,257.15,378.8Z" transform="translate(-201.27 -244.84)"/><path class="cls-2" d="M343,407.31c4-2,7.75-4.22,11.74-5.64a60.68,60.68,0,0,1,33.31-2.44,56.49,56.49,0,0,1,29.82,16.15A50.3,50.3,0,0,1,431.1,440.8a57.55,57.55,0,0,1-1.8,30.59c-3.75,11.31-10.9,20.66-19.8,28.62q-15.39,13.74-30.73,27.54-22.2,19.91-44.37,39.84c-6.07,5.46-11.89,11.2-18.18,16.37-9.16,7.53-19.62,12.68-31.53,13.85-7.12.71-14.54,1.44-21.47.2-16.17-2.89-30.42-9.88-41.75-22.4a67.22,67.22,0,0,1-15.88-28.8c-2.36-9.43-2.89-19.36-3.69-29.11-.64-7.67-.67-15.42-.6-23.14.1-11.77.53-23.55.81-35.32.17-7.28.15-14.56.52-21.83.51-10,1.31-20,2-30,.5-7.66.94-15.32,1.48-23,.58-8.24,1.33-16.47,1.87-24.71.49-7.49.76-15,1.18-22.49.27-5,0-10.1,1.21-14.84.69-2.65,3.57-5.26,6.12-6.81,12.44-7.57,25.07-14.84,37.7-22.1,13.65-7.84,27.3-15.69,41.11-23.26,10.18-5.57,20.61-10.71,30.94-16,5.5-2.83,11-5.61,16.55-8.42,3.5-1.78,8.59-.11,8.77,4.65.25,6.85-.46,13.75-.86,20.63-.44,7.62-1,15.23-1.49,22.85-.52,8-1.06,16-1.53,24-.31,5.34-.46,10.7-.78,16-.62,10.29-1.33,20.58-1.94,30.87-.43,7.25-.75,14.52-1.16,21.77-.36,6.22-.79,12.43-1.13,18.65A10.6,10.6,0,0,0,343,407.31ZM338.73,261c-9.83,5.06-19.46,9.9-29,14.94-7.39,3.91-14.65,8.07-22,12.13-11.64,6.44-23.37,12.72-34.87,19.4-9,5.23-17.51,11.33-26.63,16.33-3.77,2.07-4.56,4.49-4.66,8.19-.15,5.62-.67,11.23-1,16.84q-.84,12.18-1.7,24.35-.58,8.18-1.21,16.35c-.57,7.51-1.28,15-1.69,22.54-.43,7.79-.49,15.59-.87,23.37-.48,9.68-1.41,19.34-1.61,29-.22,11.54,0,23.1.26,34.64.2,10.2.52,20.4,1,30.59a60.4,60.4,0,0,0,13.82,35.41,56.47,56.47,0,0,0,32,19.84c16,3.71,30.67,1.59,44.3-8,10.18-7.19,17-16.09,19-28.73,1.44-9.22-.48-17.63-4.45-25.63-3.23-6.51-8-12-13.46-16.9a42.73,42.73,0,0,0-57.41-.78c-10,8.52-15.73,18.81-15,32.23.18,3.25-3.15,6.67-6.49,6.7-2.2,0-5.39-3.39-5.56-5.89-.83-11.84,2.76-22.42,9.4-32,7.14-10.35,17.68-17.24,26.82-25.52,10.84-9.83,22.25-19,33.37-28.56,10.44-8.93,21-17.76,31.16-27,3.12-2.81,7.84-4.59,8-10,.25-7.55.74-15.09,1.12-22.64.49-9.72.94-19.44,1.49-29.16.6-10.33,1.32-20.66,1.95-31,.45-7.54.8-15.09,1.24-22.63.47-7.9,1-15.8,1.45-23.71S338.32,269.6,338.73,261Zm-2.6,287.68a8.37,8.37,0,0,0,1.8-.71q17.88-16.08,35.75-32.2c10-9,19.93-18.22,30.09-27.12,12.72-11.14,17.51-25.51,16.34-41.74-.88-12.08-7.14-22-17.15-28.8a47.08,47.08,0,0,0-33.65-7.67c-7.61,1.07-14.84,3.25-20.88,8.14-6.85,5.55-13.47,11.39-20.16,17.14q-17.37,14.94-34.69,29.93c-6.11,5.28-12.18,10.61-18.79,16.37,18.61.18,33.44,7.37,45.29,20.4C331.78,515.28,337.66,530.5,336.13,548.67Z" transform="translate(-201.27 -244.84)"/></svg>