<svg id="Capa_1" data-name="Capa 1" xmlns="http://www.w3.org/2000/svg" viewBox="0 0 231.38 352.49"><defs><style>.cls-1{fill:#aa1257;}.cls-2{fill:#7b1333;}</style></defs><path class="cls-1" d="M288.26,421.94l2.37-.7c7.95-2.34,15.47-1.7,22.45,2.21q19.28,10.29,25.31,41.8a107,107,0,0,1,1.75,22.26,152,152,0,0,1-14.48,61.68c-7,15.19-15.44,27.28-25.24,36.27a54.46,54.46,0,0,1-13.49,9.38c-11.43,5.36-21.61,4.34-30.43-3.4-8.36-7.61-13.95-20.05-16.83-37A129,129,0,0,1,238,537.93c0-.39-.06-.75-.09-1.13l-.09-6.42c0-.37.06-.76.07-1.13a165.41,165.41,0,0,1,1.16-17.91c3.59-30.49,14.7-58.58,29.88-75.5a53.74,53.74,0,0,1,14.63-11.71l2.26-1.21Zm-44.9,109.2c.63,44.45,21.83,68.13,47.39,52.92s45.32-59.74,44.1-99.46-22.49-63.43-47.43-53S242.74,486.69,243.36,531.14Z" transform="translate(-187.66 -245.7)"/><path class="cls-1" d="M290.47,559.14a50,50,0,0,0,13-11.11,3.27,3.27,0,0,0,.33-.45,99.65,99.65,0,0,0,10.48-23.38,96.38,96.38,0,0,0,3.23-14.9,13.53,13.53,0,0,0-.16-2.19,30.14,30.14,0,0,1,0-3.68,4.93,4.93,0,0,1,2-3.9,7.2,7.2,0,0,1,2.55-.91c1.42-.19,2.83,2.63,2.53,4.8a9,9,0,0,1-1.53,3.83,4.45,4.45,0,0,0-.73,2.16,95.9,95.9,0,0,1-15,41.9,53.5,53.5,0,0,1-13.92,14.92c-5.35,3.72-10.57,5.25-15.63,4.95a15.34,15.34,0,0,1-6.71-2.54c-6.45-3.9-11.15-11.26-14.06-22.15a2.05,2.05,0,0,0-.34-.64,15.33,15.33,0,0,1-1.5-2.24,6.06,6.06,0,0,1,.36-5.16c1.22-2.57,2.68-4.32,4.37-4.92,1.39-.5,2.24.65,2.39,3.19.07,1.25,0,2.58,0,3.86a6.6,6.6,0,0,0,.17,1.6c2,6.94,4.81,12.61,8.67,16.31a13.67,13.67,0,0,0,8.12,4,14.72,14.72,0,0,0,4.38-.6A26,26,0,0,0,290.47,559.14Z" transform="translate(-187.66 -245.7)"/><path class="cls-1" d="M296.49,478.42a47.28,47.28,0,0,1,1-10.91,23.62,23.62,0,0,1,1.05-3.5c1.16-3,2.78-3.69,4.08-1.92a12.59,12.59,0,0,1,1.89,5,49.86,49.86,0,0,1-.05,19,19,19,0,0,1-1.38,4.46c-1.09,2.38-2.43,3.06-3.61,1.8s-1.75-3.32-2.21-5.56A46.63,46.63,0,0,1,296.49,478.42Z" transform="translate(-187.66 -245.7)"/><path class="cls-1" d="M270.49,493.06a54.44,54.44,0,0,1,1.05-12.65,26.07,26.07,0,0,1,1.08-3.67c1.17-3,2.77-3.72,4.06-1.9a12.61,12.61,0,0,1,1.78,4.74,52.71,52.71,0,0,1,0,19.7,21.37,21.37,0,0,1-1.45,5c-1.12,2.47-2.47,3.16-3.65,1.81s-1.72-3.44-2.15-5.73c-.2-1-.37-2.12-.48-3.24C270.63,495.53,270.55,493.93,270.49,493.06Z" transform="translate(-187.66 -245.7)"/><path class="cls-2" d="M329.7,304.17c4.05-2,7.75-4.22,11.74-5.64a60.69,60.69,0,0,1,33.31-2.44,56.49,56.49,0,0,1,29.83,16.15,50.36,50.36,0,0,1,13.18,25.42,57.55,57.55,0,0,1-1.8,30.59c-3.75,11.31-10.89,20.66-19.8,28.62q-15.39,13.74-30.73,27.54-22.2,19.9-44.37,39.84c-6.07,5.46-11.89,11.19-18.18,16.37-9.16,7.53-19.62,12.68-31.53,13.85-7.11.71-14.54,1.44-21.47.2-16.17-2.89-30.42-9.88-41.75-22.4a67.22,67.22,0,0,1-15.88-28.8c-2.36-9.43-2.89-19.36-3.69-29.11-.64-7.68-.67-15.42-.6-23.14.1-11.77-.59-46.87-.17-54.37.28-5,0-10.1,1.21-14.84.69-2.65,3.57-4.26,6.12-5.81,12.44-7.57,25.07-14.85,37.7-22.1,13.65-7.84,27.3-15.69,41.11-23.26,10.18-5.58,20.61-10.71,30.94-16,5.51-2.83,11-5.61,16.55-8.42,3.5-1.79,8.59-.11,8.77,4.64.26,6.86.65,24.93.24,32.18-.35,6.22-.78,12.43-1.13,18.65A10.6,10.6,0,0,0,329.7,304.17Zm-12.3-42.32c-9.84,5.06-19.46,9.9-29,14.94-7.39,3.91-14.64,8.07-22,12.13-11.63,6.44-23.37,12.71-34.87,19.4-9,5.23-17.51,10.33-26.62,15.33-3.78,2.07-4.57,4.49-4.66,8.19-.15,5.62-.11,52.57.12,64.11.2,10.2.52,20.4,1,30.59A60.41,60.41,0,0,0,215.28,462a56.48,56.48,0,0,0,31.95,19.84c16,3.71,30.68,1.58,44.31-8.05,10.18-7.19,17-16.09,19-28.74,1.44-9.21-.48-17.62-4.44-25.62-3.23-6.51-8-12-13.47-16.9a42.71,42.71,0,0,0-57.4-.78c-10,8.52-15.73,18.81-15,32.23.19,3.25-3.15,6.67-6.48,6.69-2.21,0-5.4-3.38-5.57-5.88-.83-11.84,2.76-22.42,9.4-32,7.15-10.35,17.68-17.24,26.82-25.52,10.84-9.83,22.25-19,33.38-28.56,10.43-8.93,21-17.76,31.16-27,3.11-2.81,7.83-4.59,8-10,.25-7.55.73-15.09,1.11-22.64C318.56,279.29,317,270.46,317.4,261.85Zm5.39,183.68a8.71,8.71,0,0,0,1.8-.71q17.9-16.08,35.75-32.2c10-9,19.94-18.22,30.09-27.12C403.15,374.36,408,360,406.77,343.76c-.87-12.08-7.13-22.05-17.15-28.8A47.05,47.05,0,0,0,356,307.29c-7.62,1.07-14.85,3.25-20.89,8.14-6.85,5.55-13.47,11.39-20.15,17.14q-17.37,14.94-34.7,29.93c-6.11,5.28-12.18,10.61-18.79,16.37,18.61.18,33.44,7.37,45.29,20.4C318.45,412.14,324.32,427.36,322.79,445.53Z" transform="translate(-187.66 -245.7)"/></svg>